<svg width="37" height="31" viewBox="0 0 37 31" fill="none" xmlns="http://www.w3.org/2000/svg">
<path d="M21.4163 10.0109C21.1043 10.0109 20.8506 9.75769 20.8506 9.44527V8.48395C20.8506 8.17193 21.1039 7.91827 21.4163 7.91827C21.7283 7.91827 21.982 8.17152 21.982 8.48395V9.44527C21.982 9.75769 21.7284 10.0109 21.4163 10.0109Z" fill="#103E13"/>
<path d="M19.0381 10.0109C18.7261 10.0109 18.4724 9.75769 18.4724 9.44527V8.48395C18.4724 8.17193 18.7257 7.91827 19.0381 7.91827C19.3501 7.91827 19.6038 8.17152 19.6038 8.48395V9.44527C19.6034 9.75769 19.3505 10.0109 19.0381 10.0109Z" fill="#103E13"/>
<path d="M16.66 10.0109C16.348 10.0109 16.0944 9.75769 16.0944 9.44527V8.48395C16.0944 8.17193 16.3476 7.91827 16.66 7.91827C16.9721 7.91827 17.2257 8.17152 17.2257 8.48395V9.44527C17.2257 9.75769 16.9725 10.0109 16.66 10.0109Z" fill="#103E13"/>
<path d="M21.4163 13.9421C21.1043 13.9421 20.8506 13.6889 20.8506 13.3765V12.4155C20.8506 12.1035 21.1039 11.8499 21.4163 11.8499C21.7283 11.8499 21.982 12.1031 21.982 12.4155V13.3765C21.982 13.6889 21.7284 13.9421 21.4163 13.9421Z" fill="#103E13"/>
<path d="M19.0381 13.9421C18.7261 13.9421 18.4724 13.6889 18.4724 13.3765V12.4155C18.4724 12.1035 18.7257 11.8499 19.0381 11.8499C19.3501 11.8499 19.6038 12.1031 19.6038 12.4155V13.3765C19.6034 13.6889 19.3505 13.9421 19.0381 13.9421Z" fill="#103E13"/>
<path d="M16.66 13.9421C16.348 13.9421 16.0944 13.6889 16.0944 13.3765V12.4155C16.0944 12.1035 16.3476 11.8499 16.66 11.8499C16.9721 11.8499 17.2257 12.1031 17.2257 12.4155V13.3765C17.2257 13.6889 16.9725 13.9421 16.66 13.9421Z" fill="#103E13"/>
<path d="M21.4163 17.8734C21.1043 17.8734 20.8506 17.6201 20.8506 17.3077V16.3464C20.8506 16.0344 21.1039 15.7807 21.4163 15.7807C21.7283 15.7807 21.982 16.0339 21.982 16.3464V17.3077C21.982 17.6201 21.7284 17.8734 21.4163 17.8734Z" fill="#103E13"/>
<path d="M19.0381 17.8734C18.7261 17.8734 18.4724 17.6201 18.4724 17.3077V16.3464C18.4724 16.0344 18.7257 15.7807 19.0381 15.7807C19.3501 15.7807 19.6038 16.0339 19.6038 16.3464V17.3077C19.6034 17.6201 19.3505 17.8734 19.0381 17.8734Z" fill="#103E13"/>
<path d="M16.66 17.8734C16.348 17.8734 16.0944 17.6201 16.0944 17.3077V16.3464C16.0944 16.0344 16.3476 15.7807 16.66 15.7807C16.9721 15.7807 17.2257 16.0339 17.2257 16.3464V17.3077C17.2257 17.6201 16.9725 17.8734 16.66 17.8734Z" fill="#103E13"/>
<path d="M21.4163 21.8039C21.1043 21.8039 20.8506 21.5506 20.8506 21.2382V20.2769C20.8506 19.9648 21.1039 19.7112 21.4163 19.7112C21.7283 19.7112 21.982 19.9644 21.982 20.2769V21.2382C21.982 21.5506 21.7284 21.8039 21.4163 21.8039Z" fill="#103E13"/>
<path d="M19.0381 21.8039C18.7261 21.8039 18.4724 21.5506 18.4724 21.2382V20.2769C18.4724 19.9648 18.7257 19.7112 19.0381 19.7112C19.3501 19.7112 19.6038 19.9644 19.6038 20.2769V21.2382C19.6034 21.5506 19.3505 21.8039 19.0381 21.8039Z" fill="#103E13"/>
<path d="M16.66 21.8039C16.348 21.8039 16.0944 21.5506 16.0944 21.2382V20.2769C16.0944 19.9648 16.3476 19.7112 16.66 19.7112C16.9721 19.7112 17.2257 19.9644 17.2257 20.2769V21.2382C17.2257 21.5506 16.9725 21.8039 16.66 21.8039Z" fill="#103E13"/>
<path d="M21.4163 25.735C21.1043 25.735 20.8506 25.4818 20.8506 25.1694V24.2084C20.8506 23.8964 21.1039 23.6428 21.4163 23.6428C21.7283 23.6428 21.982 23.896 21.982 24.2084V25.1694C21.982 25.4814 21.7284 25.735 21.4163 25.735Z" fill="#103E13"/>
<path d="M19.0381 25.735C18.7261 25.735 18.4724 25.4818 18.4724 25.1694V24.2084C18.4724 23.8964 18.7257 23.6428 19.0381 23.6428C19.3501 23.6428 19.6038 23.896 19.6038 24.2084V25.1694C19.6034 25.4814 19.3505 25.735 19.0381 25.735Z" fill="#103E13"/>
<path d="M16.66 25.735C16.348 25.735 16.0944 25.4818 16.0944 25.1694L16.0948 24.2084C16.0948 23.8964 16.348 23.6428 16.6604 23.6428C16.9725 23.6428 17.2261 23.896 17.2261 24.2084V25.1694C17.2257 25.4814 16.9725 25.735 16.66 25.735Z" fill="#103E13"/>
<path d="M0.500475 29.6472C0.500475 29.9592 0.753724 30.2129 1.06615 30.2129H35.5139C35.8259 30.2129 36.0796 29.9596 36.0796 29.6472C36.0796 29.3352 35.8263 29.0815 35.5139 29.0815H34.4682V12.8402C34.4682 12.5282 34.215 12.2746 33.9025 12.2746L24.6668 12.2749V0.565823C24.6668 0.367803 24.5635 0.18477 24.3946 0.0822C24.2262 -0.0207535 24.0156 -0.0270647 23.8404 0.0640544L13.3401 5.53104C13.1527 5.62847 13.0359 5.82176 13.0359 6.03281V16.2605H2.87388C2.56186 16.2605 2.3082 16.5137 2.3082 16.8262V29.0816H1.06489C0.752866 29.0812 0.5 29.3345 0.5 29.6469L0.500475 29.6472ZM24.667 20.8423H33.3374V29.082L24.667 29.0816V20.8423ZM24.667 16.9114H33.3374V19.7114L24.667 19.711V16.9114ZM24.667 13.4057H33.3374V15.7809H24.667V13.4057ZM14.1667 6.37629L23.5353 1.49824V29.0811H14.1667V6.37629ZM6.23588 24.5636C6.23588 23.3896 7.16603 22.4342 8.30959 22.4342C9.45314 22.4342 10.3837 23.3892 10.3837 24.5636V29.0818H6.23588V24.5636ZM3.43952 17.3916H13.0358V29.0816H11.515V24.5634C11.515 22.7657 10.0776 21.3031 8.30959 21.3031C6.54236 21.3031 5.10495 22.7653 5.10495 24.5634V29.0816H3.43952V17.3916Z" fill="#103E13"/>
</svg>
